<svg width="1024" height="1024" viewBox="0 0 1024 1024" fill="none" xmlns="http://www.w3.org/2000/svg">
  <defs>
    <linearGradient id="panel" x1="268" y1="286" x2="742" y2="708" gradientUnits="userSpaceOnUse">
      <stop stop-color="white" stop-opacity="0.29"/>
      <stop offset="1" stop-color="white" stop-opacity="0.1"/>
    </linearGradient>
    <linearGradient id="panelEdge" x1="248" y1="284" x2="704" y2="652" gradientUnits="userSpaceOnUse">
      <stop stop-color="white" stop-opacity="0.34"/>
      <stop offset="1" stop-color="white" stop-opacity="0.06"/>
    </linearGradient>
    <linearGradient id="top" x1="326" y1="218" x2="706" y2="306" gradientUnits="userSpaceOnUse">
      <stop stop-color="white" stop-opacity="0.33"/>
      <stop offset="1" stop-color="white" stop-opacity="0.12"/>
    </linearGradient>
    <linearGradient id="accent" x1="608" y1="244" x2="680" y2="278" gradientUnits="userSpaceOnUse">
      <stop stop-color="#9CF7E5"/>
      <stop offset="1" stop-color="#79F5DC"/>
    </linearGradient>
  </defs>

  <ellipse cx="512" cy="738" rx="228" ry="42" fill="#081828" fill-opacity="0.28"/>
  <ellipse cx="514" cy="726" rx="190" ry="26" fill="#081828" fill-opacity="0.14"/>

  <rect x="248" y="284" width="528" height="434" rx="70" fill="url(#panel)"/>
  <rect x="250.5" y="286.5" width="523" height="429" rx="67.5" stroke="url(#panelEdge)" stroke-width="5"/>
  <rect x="282" y="312" width="196" height="10" rx="5" fill="white" fill-opacity="0.1"/>
  <rect x="248" y="520" width="528" height="198" rx="70" fill="#071724" fill-opacity="0.08"/>

  <rect x="324" y="218" width="384" height="96" rx="36" fill="url(#top)"/>
  <rect x="326.5" y="220.5" width="379" height="91" rx="33.5" stroke="white" stroke-opacity="0.2" stroke-width="5"/>

  <circle cx="358" cy="266" r="10" fill="#7EF3D5"/>
  <circle cx="392" cy="266" r="10" fill="#FFD36A"/>
  <circle cx="426" cy="266" r="10" fill="#FF8B72"/>

  <rect x="594" y="240" width="88" height="42" rx="21" fill="white" fill-opacity="0.16"/>
  <path d="M621 261L635 247V255H654V267H635V275L621 261Z" fill="url(#accent)"/>
</svg>
